<?xml version="1.0" encoding="utf-8"?>
<!-- Generator: Adobe Illustrator 27.7.0, SVG Export Plug-In . SVG Version: 6.00 Build 0)  -->
<svg version="1.1" id="Layer_1" xmlns="http://www.w3.org/2000/svg" xmlns:xlink="http://www.w3.org/1999/xlink" x="0px" y="0px"
	 viewBox="0 0 141.7 141.7" style="enable-background:new 0 0 141.7 141.7;" xml:space="preserve">
<style type="text/css">
	.st0{fill:#ED7F4C;}
	.st1{fill:#F3A068;}
	.st2{fill:#231F20;}
</style>
<g>
	<path class="st0" d="M26.1,52.1h17.5l1.2,0.3L46,53l1.1,1l1,1l0.7,0.6l11.2,11.2l0.7,1l0.4,0.9l0.2,0.8l0.1,0.6V71l-0.2,1.3
		l-0.5,1.2L60,74.5l-1,1.1l-13,13l-1.1,0.7l-1,0.3l-0.4,0.1H26.2l-1-0.4l-0.5-0.4l-0.5-0.7L24,87.5l-0.1-0.9l0.2-0.9l0.5-0.7
		l8.9-8.9l0.6-0.7l4.5-4.5l-0.5-0.6L26.6,58.7l-0.2-0.1v-0.2h-0.2l-0.5-0.6l-0.4-0.4l-0.3-0.2v-0.2h-0.2l-0.7-0.8l-0.3-1v-0.7
		l0.2-0.8l0.5-0.7l0.7-0.6L26.1,52.1L26.1,52.1z"/>
	<path class="st1" d="M34,52.1h9.6l1.2,0.3L46,53l1.1,1l1,1l0.7,0.6l11.2,11.2l0.7,1l0.4,0.9l0.2,0.8l0.1,0.6V71l-0.2,1.3l-0.5,1.2
		L60,74.5l-1,1.1l-13,13l-1.1,0.7l-1,0.3l-0.4,0.1h-5.3L38,89.5l0.1-0.3h0.2V89l0.3-0.3h0.2l0.2-0.3l1.3-1.3l0.4-0.5h0.2v-0.2h0.2
		v-0.2h0.2l0.2-0.3l11.6-11.6l0.7-1.1l0.4-1l0.2-0.5l0.1-0.6v-0.7L53.9,69l-0.6-1.1l-0.9-1l-0.5-0.5v-0.2l-0.3-0.2L49,63.5v-0.2
		h-0.2v-0.2h-0.2V63l-0.2-0.1l-0.6-0.7l-6.4-6.4v-0.2h-0.2v-0.2h-0.2v-0.2l-0.3-0.2l-2.8-2.8l-4-0.1v-0.1L34,52.1z"/>
	<g>
		<path class="st2" d="M69.3,62.8h3.4v2h-6V54.1h2.6V62.8z"/>
		<path class="st2" d="M81.9,61.1H76c0,0.6,0.2,1.1,0.5,1.4c0.3,0.3,0.7,0.4,1.1,0.4c0.4,0,0.7-0.1,1-0.3c0.2-0.2,0.4-0.4,0.5-0.7
			h2.7c-0.1,0.6-0.4,1.1-0.7,1.6s-0.8,0.8-1.4,1.1c-0.6,0.3-1.2,0.4-1.9,0.4c-0.8,0-1.6-0.2-2.2-0.5c-0.6-0.4-1.1-0.9-1.5-1.5
			s-0.5-1.4-0.5-2.3s0.2-1.6,0.5-2.3c0.4-0.6,0.9-1.1,1.5-1.5c0.6-0.4,1.4-0.5,2.2-0.5s1.6,0.2,2.2,0.5s1.1,0.8,1.5,1.4
			s0.5,1.3,0.5,2.1C81.9,60.6,81.9,60.8,81.9,61.1L81.9,61.1z M78.9,58.7c-0.3-0.3-0.7-0.4-1.1-0.4s-0.9,0.1-1.2,0.4
			S76.1,59.4,76,60h3.3C79.3,59.4,79.2,59,78.9,58.7z"/>
		<path class="st2" d="M90.4,56.8c0.5,0.4,1,0.8,1.3,1.5c0.3,0.6,0.5,1.4,0.5,2.3s-0.2,1.6-0.5,2.3c-0.3,0.6-0.8,1.1-1.3,1.5
			s-1.2,0.5-1.9,0.5c-0.6,0-1.2-0.1-1.7-0.4s-0.8-0.7-1-1.2v5.5h-2.6V56.4h2.6v1.5c0.2-0.5,0.5-0.9,1-1.2c0.5-0.3,1-0.4,1.7-0.4
			C89.2,56.3,89.8,56.4,90.4,56.8L90.4,56.8z M86.4,59.1c-0.4,0.4-0.5,0.9-0.5,1.5s0.2,1.1,0.5,1.5c0.4,0.4,0.8,0.6,1.3,0.6
			s1-0.2,1.3-0.5c0.3-0.4,0.5-0.9,0.5-1.5s-0.2-1.1-0.5-1.5s-0.8-0.5-1.3-0.5S86.7,58.7,86.4,59.1L86.4,59.1z"/>
		<path class="st2" d="M93.7,53c0.3-0.3,0.6-0.4,1.1-0.4s0.8,0.1,1.1,0.4c0.3,0.3,0.4,0.6,0.4,1s-0.1,0.7-0.4,1
			c-0.3,0.3-0.6,0.4-1.1,0.4S94,55.2,93.7,55s-0.4-0.6-0.4-1S93.4,53.3,93.7,53z M96.1,56.4v8.4h-2.6v-8.4L96.1,56.4L96.1,56.4z"/>
		<path class="st2" d="M105.8,61.1h-5.8c0,0.6,0.2,1.1,0.5,1.4c0.3,0.3,0.7,0.4,1.1,0.4c0.4,0,0.7-0.1,1-0.3
			c0.2-0.2,0.4-0.4,0.5-0.7h2.7c-0.1,0.6-0.4,1.1-0.7,1.6s-0.8,0.8-1.4,1.1c-0.6,0.3-1.2,0.4-1.9,0.4c-0.8,0-1.6-0.2-2.2-0.5
			c-0.6-0.4-1.1-0.9-1.5-1.5s-0.5-1.4-0.5-2.3s0.2-1.6,0.5-2.3c0.4-0.6,0.9-1.1,1.5-1.5c0.6-0.4,1.4-0.5,2.2-0.5s1.6,0.2,2.2,0.5
			s1.1,0.8,1.5,1.4s0.5,1.3,0.5,2.1C105.9,60.6,105.8,60.8,105.8,61.1L105.8,61.1z M102.8,58.7c-0.3-0.3-0.7-0.4-1.1-0.4
			s-0.9,0.1-1.2,0.4S100,59.4,100,60h3.3C103.2,59.4,103.1,59,102.8,58.7z"/>
		<path class="st2" d="M105.8,66.6h0.6c0.3,0,0.5-0.1,0.6-0.2c0.1-0.1,0.2-0.3,0.2-0.6v-9.5h2.6v9.4c0,2-1,3-3,3h-1L105.8,66.6
			L105.8,66.6z M107.4,55c-0.3-0.3-0.4-0.6-0.4-1s0.1-0.7,0.4-1s0.6-0.4,1.1-0.4s0.8,0.1,1.1,0.4c0.3,0.3,0.4,0.6,0.4,1
			s-0.1,0.7-0.4,1c-0.3,0.3-0.6,0.4-1.1,0.4S107.7,55.2,107.4,55z"/>
		<path class="st2" d="M75.6,82.5c-0.5,0.8-1.1,1.4-1.9,1.9s-1.8,0.7-3,0.7h-4V74.4h4c1.1,0,2.1,0.2,3,0.7s1.5,1.1,1.9,1.9
			c0.5,0.8,0.7,1.7,0.7,2.8S76.1,81.6,75.6,82.5L75.6,82.5z M72.9,81.9c0.6-0.5,0.8-1.3,0.8-2.2s-0.3-1.7-0.8-2.2s-1.3-0.8-2.4-0.8
			h-1.2v6.1h1.2C71.5,82.7,72.3,82.4,72.9,81.9L72.9,81.9z"/>
		<path class="st2" d="M80.1,82.9H84V85h-6.7v-2l3.6-4.2h-3.6v-2.1h6.5v2L80.1,82.9L80.1,82.9z"/>
		<path class="st2" d="M85.4,73.3c0.3-0.3,0.6-0.4,1.1-0.4s0.8,0.1,1.1,0.4c0.3,0.3,0.4,0.6,0.4,1s-0.1,0.7-0.4,1
			c-0.3,0.3-0.6,0.4-1.1,0.4s-0.8-0.1-1.1-0.4s-0.4-0.6-0.4-1S85.1,73.5,85.4,73.3z M87.8,76.6V85h-2.6v-8.4H87.8z"/>
		<path class="st2" d="M94.4,77c0.5,0.3,0.8,0.7,1,1.2v-1.5H98V85h-2.6v-1.5c-0.2,0.5-0.6,0.9-1,1.2c-0.5,0.3-1,0.4-1.7,0.4
			c-0.7,0-1.3-0.2-1.9-0.5c-0.5-0.4-1-0.9-1.3-1.5c-0.3-0.6-0.5-1.4-0.5-2.3s0.2-1.6,0.5-2.3s0.8-1.1,1.3-1.5
			c0.5-0.4,1.2-0.5,1.9-0.5C93.4,76.5,93.9,76.7,94.4,77L94.4,77z M92.2,79.3c-0.3,0.4-0.5,0.9-0.5,1.5s0.2,1.1,0.5,1.5
			c0.3,0.4,0.8,0.5,1.3,0.5s1-0.2,1.3-0.6s0.5-0.9,0.5-1.5s-0.2-1.1-0.5-1.5c-0.4-0.4-0.8-0.5-1.3-0.5S92.6,79,92.2,79.3L92.2,79.3z
			"/>
		<path class="st2" d="M103.7,79.4l-1.1,0.3V85h-2.6v-4.4L99,80.9v-2.5l1.1-0.3v-4.2h2.6v3.4l1.1-0.3V79.4z"/>
		<path class="st2" d="M109.6,77c0.5,0.3,0.8,0.7,1,1.2v-1.5h2.6V85h-2.6v-1.5c-0.2,0.5-0.6,0.9-1,1.2c-0.5,0.3-1,0.4-1.7,0.4
			c-0.7,0-1.3-0.2-1.9-0.5c-0.5-0.4-1-0.9-1.3-1.5c-0.3-0.6-0.5-1.4-0.5-2.3s0.2-1.6,0.5-2.3s0.8-1.1,1.3-1.5
			c0.5-0.4,1.2-0.5,1.9-0.5C108.6,76.5,109.2,76.7,109.6,77L109.6,77z M107.5,79.3c-0.3,0.4-0.5,0.9-0.5,1.5s0.2,1.1,0.5,1.5
			c0.3,0.4,0.8,0.5,1.3,0.5s1-0.2,1.3-0.6s0.5-0.9,0.5-1.5s-0.2-1.1-0.5-1.5c-0.4-0.4-0.8-0.5-1.3-0.5S107.8,79,107.5,79.3
			L107.5,79.3z"/>
		<path class="st2" d="M113.6,86.8h0.6c0.3,0,0.5-0.1,0.6-0.2c0.1-0.1,0.2-0.3,0.2-0.6v-9.5h2.6v9.4c0,2-1,3-3,3h-1L113.6,86.8
			L113.6,86.8z M115.2,75.2c-0.3-0.3-0.4-0.6-0.4-1s0.1-0.7,0.4-1s0.6-0.4,1.1-0.4s0.8,0.1,1.1,0.4c0.3,0.3,0.4,0.6,0.4,1
			s-0.1,0.7-0.4,1c-0.3,0.3-0.6,0.4-1.1,0.4S115.5,75.5,115.2,75.2z"/>
	</g>
</g>
</svg>
